HIERARCHY
ROOT Hips
{
     OFFSET 19.12770 94.12990 -19.48370
     CHANNELS 6 Xposition Yposition Zposition Zrotation Xrotation Yrotation
     JOINT Spine
     {
          OFFSET 0.00000 11.89050 0.00000
          CHANNELS 3 Zrotation Xrotation Yrotation
          JOINT Spine1
          {
               OFFSET -0.00000 25.65740 0.12766
               CHANNELS 3 Zrotation Xrotation Yrotation
               JOINT HEad
               {
                    OFFSET -0.00000 8.73416 0.01134
                    CHANNELS 3 Zrotation Xrotation Yrotation
                    End Site
                    {
                         OFFSET -0.29000 12.77420 2.51395
                    }
               }
               JOINT LeftShoulder1
               {
                    OFFSET 8.99000 -0.36225 -0.22000
                    CHANNELS 3 Zrotation Xrotation Yrotation
                    JOINT LeftArm
                    {
                         OFFSET 10.28270 -0.00338 0.32212
                         CHANNELS 3 Zrotation Xrotation Yrotation
                         JOINT LeftForeArm
                         {
                              OFFSET 32.76690 0.09914 -1.42434
                              CHANNELS 3 Zrotation Xrotation Yrotation
                              JOINT LeftHand
                              {
                                   OFFSET 27.56430 0.08536 1.02216
                                   CHANNELS 3 Zrotation Xrotation Yrotation
                                   End Site
                                   {
                                        OFFSET 16.74430 -0.60000 1.50291
                                   }
                              }
                         }
                    }
               }
               JOINT RightShoulder
               {
                    OFFSET -8.99000 -0.36225 -0.22000
                    CHANNELS 3 Zrotation Xrotation Yrotation
                    JOINT RightArm
                    {
                         OFFSET -10.28270 -0.00338 0.32212
                         CHANNELS 3 Zrotation Xrotation Yrotation
                         JOINT RightForeArm
                         {
                              OFFSET -32.89710 0.09914 -1.42434
                              CHANNELS 3 Zrotation Xrotation Yrotation
                              JOINT RightHand
                              {
                                   OFFSET -27.49210 0.08536 1.02216
                                   CHANNELS 3 Zrotation Xrotation Yrotation
                                   End Site
                                   {
                                        OFFSET -16.63120 -0.60000 1.50291
                                   }
                              }
                         }
                    }
               }
          }
     }
     JOINT LeftUpLeg
     {
          OFFSET 8.94580 -8.66707 0.10165
          CHANNELS 3 Zrotation Xrotation Yrotation
          JOINT LeftLeg
          {
               OFFSET 0.00000 -44.42270 1.37270
               CHANNELS 3 Zrotation Xrotation Yrotation
               JOINT LeftFoot
               {
                    OFFSET -0.25355 -42.09240 -1.46059
                    CHANNELS 3 Zrotation Xrotation Yrotation
                    JOINT LeftToes
                    {
                         OFFSET -0.04000 -4.41509 8.49910
                         CHANNELS 3 Zrotation Xrotation Yrotation
                         End Site
                         {
                              OFFSET 0.08000 -0.04745 9.77979
                         }
                    }
               }
          }
     }
     JOINT RightUpLeg
     {
          OFFSET -8.94580 -8.66707 0.10165
          CHANNELS 3 Zrotation Xrotation Yrotation
          JOINT RightLeg
          {
               OFFSET -0.00000 -44.42270 1.37270
               CHANNELS 3 Zrotation Xrotation Yrotation
               JOINT RightFoot
               {
                    OFFSET 0.25355 -42.09240 -1.46059
                    CHANNELS 3 Zrotation Xrotation Yrotation
                    JOINT RightToes
                    {
                         OFFSET 0.04000 -4.41509 8.49910
                         CHANNELS 3 Zrotation Xrotation Yrotation
                         End Site
                         {
                              OFFSET -0.08000 -0.13745 9.77979
                         }
                    }
               }
          }
     }
}
MOTION
Frames: 13
Frame Time: 0.01667
17.79910 94.15190 -24.66140 -9.05587 -14.12900 -34.92230 -3.34198 11.44030 -0.26956 -2.63912 22.73110 -0.71311 -5.81112 4.49690 11.11890 -0.00000 0.00000 -0.00000 -133.99800 -58.82980 -105.46200 -54.42090 62.78420 -64.37940 17.10870 7.70123 -11.02430 10.39710 0.40715 0.18980 86.09680 -7.25263 80.52920 6.79230 34.28540 105.82900 18.69940 11.51790 5.27096 24.52990 -5.53925 -22.04220 -32.80050 10.13390 76.84120 -2.75185 12.91380 0.39880 6.04658 -18.23590 -54.69360 -25.12920 9.61474 12.28170 40.94740 8.72729 -37.03060 -35.13670 -0.35636 2.19714 7.36305 -43.23600 13.27770 
17.90100 94.15730 -24.13710 -9.18310 -14.11420 -35.85180 -3.62376 11.49850 -0.27526 -2.60028 22.82820 -0.83992 -6.36601 4.67226 11.71950 -0.00000 0.00000 -0.00000 -134.18401 -58.99150 -105.36700 -54.20370 62.74730 -64.58220 17.12060 7.68986 -11.09130 9.86592 0.34974 -0.17886 86.00860 -6.72078 80.66760 6.40064 34.10400 106.13600 18.74330 11.52360 5.28269 24.97120 -5.54059 -20.78040 -33.10490 10.81320 76.96950 -2.23287 13.77660 0.31754 5.57874 -19.98580 -55.76140 -25.50070 9.66342 12.51790 40.84900 8.70269 -36.41060 -35.41250 0.02246 2.33970 7.50433 -43.87640 13.21750 
18.03240 94.10210 -23.52250 -9.35165 -14.07640 -36.77860 -3.77409 11.54760 -0.33389 -2.59114 22.91860 -1.01080 -6.86610 4.82293 12.38560 -0.00000 0.00000 -0.00000 -134.61700 -59.18410 -105.53200 -54.40420 62.79800 -64.40060 17.17050 7.67540 -11.14370 9.55655 0.31183 -0.44132 85.75280 -6.31198 80.79490 5.99087 33.89630 106.41100 18.81440 11.52740 5.26945 25.44260 -5.50462 -19.93530 -33.15990 11.20480 76.82460 -2.02262 14.13480 0.28251 5.27226 -21.05750 -56.53940 -25.86380 9.63188 12.77130 40.79050 8.88056 -35.88150 -35.66460 0.25926 2.43592 7.63418 -44.50940 13.12400 
18.19970 93.97780 -22.80790 -9.57011 -13.97610 -37.69920 -3.75951 11.57710 -0.45130 -2.60402 22.98270 -1.22062 -7.34323 5.13115 13.01350 -0.00000 0.00000 -0.00000 -135.34599 -59.42250 -105.99900 -55.04610 62.97080 -63.81890 17.23960 7.66273 -11.16550 9.49860 0.29131 -0.59729 85.32520 -6.01484 80.88970 5.71050 33.71240 106.60800 18.90030 11.52010 5.18399 25.99140 -5.46886 -19.63030 -33.01550 11.22910 76.49040 -2.10905 13.96460 0.29679 5.17173 -21.39750 -56.88710 -26.17300 9.45806 13.01980 40.76060 9.34613 -35.46330 -35.81580 0.31830 2.46692 7.75653 -45.08520 13.05420 
18.40890 93.78420 -21.98330 -9.83357 -13.77710 -38.61190 -3.55895 11.58640 -0.62324 -2.60923 23.01970 -1.45777 -7.84162 5.60548 13.53750 -0.00000 0.00000 -0.00000 -136.18800 -59.63000 -106.60900 -55.86220 63.19710 -63.06880 17.28610 7.65918 -11.14600 9.57534 0.27409 -0.73854 84.84140 -5.74438 80.96770 5.51580 33.56240 106.78200 18.96770 11.49780 5.02086 26.63960 -5.47332 -19.90240 -32.70810 10.88970 76.02030 -2.44607 13.31400 0.35022 5.30227 -20.96140 -56.62390 -26.41140 9.11988 13.23900 40.75330 10.10190 -35.11770 -35.79420 0.21383 2.43094 7.85003 -45.55320 12.97820 
18.66050 93.52820 -21.04090 -10.12200 -13.47020 -39.51710 -3.17776 11.58160 -0.83585 -2.59195 23.04280 -1.70261 -8.39512 6.11840 13.95420 -0.00000 0.00000 -0.00000 -136.79401 -59.70670 -107.05700 -56.46750 63.34920 -62.47560 17.26730 7.66826 -11.10170 9.67875 0.24518 -0.97076 84.42320 -5.42477 81.06480 5.23456 33.42240 107.04200 19.01680 11.46650 4.81484 27.36900 -5.53908 -20.71530 -32.24650 10.25680 75.50380 -3.00928 12.28220 0.43215 5.66708 -19.67700 -55.68280 -26.60320 8.64652 13.40130 40.76260 11.08020 -34.77120 -35.59860 -0.01028 2.34283 7.88517 -45.89700 12.81420 
18.94700 93.22420 -19.97900 -10.40290 -13.05910 -40.42530 -2.66102 11.56120 -1.07497 -2.55670 23.04750 -1.94974 -8.99202 6.54223 14.32860 -0.00000 0.00000 -0.00000 -137.00400 -59.64930 -107.19500 -56.66630 63.35980 -62.20000 17.16620 7.68552 -11.07830 9.77021 0.20468 -1.28880 84.10010 -5.06462 81.18930 4.86259 33.28260 107.37800 19.07010 11.43750 4.62152 28.13500 -5.67715 -21.93070 -31.61160 9.47378 75.06770 -3.84654 11.02630 0.54299 6.24232 -17.44670 -54.18090 -26.79680 8.08448 13.50780 40.78910 12.15580 -34.35330 -35.28210 -0.30479 2.22410 7.84068 -46.10900 12.50180 
19.26160 92.89400 -18.80430 -10.65510 -12.53500 -41.35890 -2.07505 11.51500 -1.33319 -2.49241 23.00830 -2.22222 -9.56611 6.80734 14.76790 -0.00000 0.00000 -0.00000 -136.99800 -59.57100 -107.16500 -56.58050 63.25650 -62.14850 17.02050 7.70136 -11.10660 9.80244 0.16705 -1.57998 83.83100 -4.70902 81.30250 4.61451 33.14170 107.63900 19.14400 11.41830 4.47634 28.90700 -5.90481 -23.33950 -30.80090 8.73549 74.81180 -5.02813 9.70705 0.68555 6.97570 -14.17600 -52.26220 -27.01370 7.46709 13.58330 40.82170 13.19280 -33.81000 -34.87950 -0.62305 2.09368 7.71431 -46.15610 12.05830 
19.62850 92.49630 -17.49080 -10.98020 -11.79920 -42.35390 -1.16245 11.42090 -1.64998 -2.26044 22.90160 -2.55376 -10.03830 6.88123 15.36460 -0.00000 0.00000 -0.00000 -137.03200 -59.60630 -107.17700 -56.40060 63.09770 -62.18740 16.89990 7.70745 -11.17930 9.70081 0.14589 -1.74273 83.59780 -4.37395 81.36000 4.59450 32.98790 107.74200 19.24740 11.40820 4.37217 29.70390 -6.50373 -24.73730 -29.92590 8.78731 74.82710 -6.85413 8.29537 0.88649 7.76996 -9.84352 -49.95090 -27.11930 6.74717 13.56850 40.85660 14.29090 -33.13020 -34.34280 -1.00255 1.93778 7.52538 -46.00290 11.56540 
20.13930 91.76210 -15.87420 -11.67590 -10.61580 -43.45830 1.09000 11.21350 -2.14933 -1.81034 22.73220 -2.95264 -10.37580 6.74572 16.13450 -0.00000 0.00000 -0.00000 -137.19800 -59.79280 -107.30400 -56.11810 62.92220 -62.34080 16.84200 7.70255 -11.26930 9.44772 0.14079 -1.78214 83.42540 -4.05636 81.35840 4.60798 32.81780 107.78900 19.35760 11.40260 4.29177 30.43390 -8.45492 -25.92430 -29.33260 11.95860 75.31910 -10.38370 6.32510 1.21307 8.47923 -4.57915 -47.23770 -26.82520 5.63617 13.23230 41.05660 16.24730 -32.46930 -33.48560 -1.77823 1.64484 7.31085 -45.70470 11.08990 
20.70160 91.02290 -14.13710 -12.18860 -9.51538 -44.59760 3.10977 11.00370 -2.60721 -1.35343 22.55500 -3.36846 -10.58420 6.40362 16.99120 -0.00000 0.00000 -0.00000 -137.45300 -60.04410 -107.50500 -55.71550 62.76070 -62.60310 16.83760 7.69093 -11.35480 9.14679 0.13305 -1.84429 83.28470 -3.72548 81.31730 4.41989 32.64650 107.93500 19.40220 11.39370 4.22137 30.84260 -10.31390 -27.13880 -28.87920 15.26770 76.12310 -14.05390 4.28712 1.42767 8.95944 1.30126 -44.24630 -26.82230 4.55338 12.92240 41.15650 18.05850 -31.73430 -32.61080 -2.43941 1.39792 7.11474 -45.45570 10.62710 
21.30820 90.33450 -12.34350 -12.55330 -8.44465 -45.74930 4.87662 10.83910 -3.05145 -0.91142 22.45040 -3.85999 -10.70420 5.79573 18.00460 -0.00000 0.00000 -0.00000 -137.98801 -60.36470 -108.04300 -55.31250 62.59160 -62.86350 16.84520 7.67791 -11.43840 8.67334 0.12656 -1.90026 83.37400 -3.30145 81.29890 3.98262 32.52640 108.22000 19.29370 11.36810 4.12164 31.11790 -11.94110 -28.23960 -28.56810 18.34810 77.19580 -17.60500 2.36208 1.51978 9.13970 7.26104 -41.27160 -26.98550 3.56288 12.64040 41.08160 19.50010 -30.91800 -31.87430 -2.79658 1.25688 6.95603 -45.45070 10.10370 
21.94560 89.75140 -10.55630 -12.74280 -7.44261 -46.85950 6.22825 10.71390 -3.44490 -0.51955 22.37410 -4.38859 -10.77310 5.08827 19.11190 -0.00000 0.00000 -0.00000 -138.35699 -60.78730 -108.54500 -54.92870 62.27080 -63.09960 16.78640 7.67160 -11.54040 8.28406 0.12487 -1.91792 83.39810 -2.93619 81.18330 3.46089 32.42450 108.60200 19.03780 11.32810 3.99980 31.35380 -13.20920 -28.96800 -28.35540 20.85690 78.37900 -20.65820 0.85282 1.52968 9.07327 12.52780 -38.73050 -27.29240 2.68222 12.44940 40.81500 20.48470 -30.04490 -31.26520 -2.79319 1.22974 6.79185 -45.68870 9.39357 
